Source: DVDR  L-S
 
http://www.imdb.com/title/tt2364659

The rise and fall of the Essex Boys gang - the drugs, the violence and, of course, the murders. The real story is the most shocking of all. 



Director:
 Paul Tanter

Writer:
 Stephen Reynolds

Stars:
 Robert Cavanah, Kierston Wareing, Peter Barrett

Country:
UK 

Genres:
 Crime 



General
Complete name                            : The Fall Of The Essex Boys 2012 DVDRip x264 AAC-OFFLiNE.mp4
Format                                   : MPEG-4
Format profile                           : Base Media
Codec ID                                 : isom
File size                                : 699 MiB
Duration                                 : 1h 27mn
Overall bit rate mode                    : Variable
Overall bit rate                         : 1 122 Kbps
Encoded date                             : UTC 2013-02-18 13:22:04
Tagged date                              : UTC 2013-02-18 13:22:04

Video
ID                                       : 1
Format                                   : AVC
Format/Info                              : Advanced Video Codec
Format profile                           : High@L4.1
Format settings, CABAC                   : Yes
Format settings, ReFrames                : 3 frames
Codec ID                                 : avc1
Codec ID/Info                            : Advanced Video Coding
Duration                                 : 1h 27mn
Bit rate mode                            : Variable
Bit rate                                 : 988 Kbps
Maximum bit rate                         : 40.0 Mbps
Width                                    : 720 pixels
Height                                   : 304 pixels
Display aspect ratio                     : 2.35:1
Frame rate mode                          : Constant
Frame rate                               : 25.000 fps
Color space                              : YUV
Chroma subsampling                       : 4:2:0
Bit depth                                : 8 bits
Scan type                                : Progressive
Bits/(Pixel*Frame)                       : 0.181
Stream size                              : 615 MiB (88%)
Writing library                          : x264 core 129 r2245 bc13772

Audio
ID                                       : 2
Format                                   : AAC
Format/Info                              : Advanced Audio Codec
Format profile                           : LC
Codec ID                                 : 40
Duration                                 : 1h 27mn
Bit rate mode                            : Variable
Bit rate                                 : 132 Kbps
Maximum bit rate                         : 158 Kbps
Channel(s)                               : 2 channels
Channel positions                        : Front: L R
Sampling rate                            : 48.0 KHz
Compression mode                         : Lossy
Stream size                              : 81.3 MiB (12%)
Language                                 : English
Encoded date                             : UTC 2013-02-18 11:32:30
Tagged date                              : UTC 2013-02-18 13:22:38


 
http://bayimg.com/FAJPbAaEl
 
http://bayimg.com/fAjpCAaEL
 
http://bayimg.com/FaJPEAAeL